# xmcd CD database file
#
# Track frame offsets:
#	150
#	20522
#	41537
#	71997
#	95617
#	120832
#	146597
#	165077
#	193237
#
# Disc length: 2873 seconds
#
# Revision: 7
# Processed by: cddbd v1.5.2PL0 Copyright (c) Steve Scherf et al.
# Submitted via: CDex 1.70beta2
#
DISCID=750b3709
DTITLE=Ozzy Osbourne - DIARY OF A MADMAN
DYEAR=1981
DGENRE=Heavy Metal
TTITLE0=Over The Mountain
TTITLE1=Flying High Again
TTITLE2=You Can't Kill Rock And Roll
TTITLE3=Believer
TTITLE4=Little Dolls
TTITLE5=Tonight
TTITLE6=S.A.T.O.
TTITLE7=Diary Of A Madman
TTITLE8=I Don't Know (Live) [Bonus Track]
EXTD=YEAR: 1981
EXTT0=
EXTT1=
EXTT2=
EXTT3=
EXTT4=
EXTT5=
EXTT6=
EXTT7=
EXTT8=
PLAYORDER=
